<?xml version="1.0" encoding="UTF-8"?><svg id="Layer_2" xmlns="http://www.w3.org/2000/svg" viewBox="0 0 159.28 159.33"><defs><style>.cls-1{fill:#213151;}.cls-1,.cls-2{stroke-width:0px;}.cls-2{fill:#213251;}</style></defs><g id="Layer_1-2"><g id="KcIrjB.tif"><path class="cls-2" d="m79.75,159.33C36.85,159.33,0,125.3,0,79.79,0,34.7,35.03.03,79.66,0c44.39-.03,79.6,34.68,79.62,79.83.03,44.94-36.54,79.44-79.53,79.5Zm-.18-14.93c35.42-.18,64.76-28.18,64.86-64.69.11-36.28-28.97-64.67-64.71-64.7-35.41-.04-64.98,27.8-64.87,64.81.11,36.28,29.12,64.26,64.71,64.59Z"/><path class="cls-1" d="m67.53,79.43c9.18,9.15,17.83,17.74,26.45,26.37,3.19,3.19,3.81,6.85,1.83,10.11-2.05,3.37-6.44,4.65-9.69,2.45-2.31-1.56-4.33-3.58-6.33-5.56-8.97-8.87-17.89-17.8-26.82-26.71-4.09-4.08-4.1-8.81,0-12.91,10.1-10.08,20.21-20.16,30.34-30.21,3.15-3.12,6.37-3.91,9.39-2.4,5.09,2.54,5.76,8.39,1.32,12.88-6.53,6.62-13.15,13.14-19.76,19.67-2.12,2.09-4.34,4.08-6.72,6.31Z"/></g></g></svg>