<?xml version="1.0" encoding="UTF-8"?><svg id="Layer_2" xmlns="http://www.w3.org/2000/svg" viewBox="0 0 159.5 159.17"><defs><style>.cls-1{fill:#203151;}.cls-1,.cls-2{stroke-width:0px;}.cls-2{fill:#213251;}</style></defs><g id="Layer_1-2"><g id="frPjKH.tif"><path class="cls-2" d="m0,79.54C.58,36.14,33.95.26,79.59,0c44.26-.25,79.84,34.62,79.91,79.57.06,42.74-33.07,79.5-79.56,79.6C34.76,159.26.77,124.12,0,79.54Zm79.92,64.87c36.4-.19,64.56-29.16,64.69-64.83.13-35.84-29.33-64.9-64.85-64.63-36.5.28-64.53,28.97-64.73,64.53-.21,35.97,29.29,65.09,64.9,64.93Z"/><path class="cls-1" d="m69.51,107.55c-1.88-1.08-4.06-1.85-5.58-3.3-6.29-6.02-12.43-12.22-18.54-18.43-2.04-2.08-3.37-4.6-2.64-7.66,1.44-6.05,8.36-7.81,13.1-3.25,4.01,3.85,7.96,7.79,11.73,11.87,1.7,1.84,2.69,1.91,4.5.07,10.35-10.55,20.83-20.97,31.26-31.44,2.18-2.19,4.68-3.32,7.84-2.78,4.27.73,7.04,5.03,5.56,9.09-.58,1.58-1.55,3.17-2.73,4.36-12.57,12.68-25.22,25.29-37.86,37.91-1.74,1.74-3.66,3.16-6.33,2.98-.11.2-.21.39-.32.59Z"/></g></g></svg>