<?xml version="1.0" encoding="UTF-8"?><svg id="Layer_2" xmlns="http://www.w3.org/2000/svg" viewBox="0 0 158.94 159.04"><defs><style>.cls-1{fill:#203151;}.cls-1,.cls-2{stroke-width:0px;}.cls-2{fill:#213151;}</style></defs><g id="Layer_1-2"><g id="m2aUC7.tif"><path class="cls-1" d="m91.21,28.5c13.33,13.32,26.47,26.46,39.97,39.96-3.31,3.2-6.68,6.39-9.97,9.65-22.97,22.84-45.93,45.69-68.87,68.57-1.62,1.61-3.26,2.72-5.66,3.18-15.07,2.92-30.09,6.08-45.13,9.14-.38.08-.79,0-1.56,0,.66-3.53,1.26-6.92,1.94-10.29,2.54-12.61,5.09-25.21,7.71-37.8.21-.99.71-2.08,1.41-2.78,26.35-26.28,52.74-52.52,79.12-78.77.29-.29.62-.53,1.04-.88Zm-42.05,77.43c17.54-17.44,34.81-34.62,52.25-51.95-1.49-1.39-3.25-2.8-4.71-4.47-1.53-1.76-2.51-1.34-3.97.14-8.17,8.28-16.43,16.47-24.66,24.68-7.88,7.86-15.76,15.73-23.64,23.59-.8.8-1.99,1.56-.69,2.84,1.89,1.85,3.83,3.65,5.42,5.17Zm-30.11,34.36c5.8-1.16,10.94-2.6,16.18-3.12,5.68-.56,9.61-3.45,13.18-7.47,1.24-1.4,1.99-2.91,1.21-4.44-.35-.69-2.11-.86-3.25-.91-2.9-.12-5.83-.18-8.72,0-2.38.15-3.04-.77-2.92-3.03.17-3.15.05-6.31.04-9.47,0-2.51-2.03-3.86-3.76-2.2-3.33,3.19-7.58,5.76-8.28,11.05-.43,3.28-1.28,6.51-1.9,9.77-.58,3.07-1.11,6.14-1.77,9.82Z"/><path class="cls-2" d="m99.12,20.73c6.56-6.62,13.54-13.67,20.54-20.73,13.09,13.19,26.22,26.43,39.29,39.61-6.77,6.76-13.78,13.76-20.61,20.59-13-13.09-26.17-26.34-39.21-39.47Z"/></g></g></svg>